<svg fill="#ffffff" height="20px" width="20px" version="1.1" id="Layer_1" xmlns="http://www.w3.org/2000/svg" xmlns:xlink="http://www.w3.org/1999/xlink" 
	 viewBox="0 0 330 330" xml:space="preserve">
<g id="XMLID_232_">
	<path id="XMLID_233_" d="M287.426,186.214L186.213,287.427l38.18,38.181c2.93,2.929,6.768,4.394,10.607,4.393
		c3.838,0.001,7.678-1.464,10.605-4.394l80-79.999C328.42,242.794,330,238.979,330,235s-1.58-7.793-4.395-10.605L287.426,186.214z"
		/>
	<path id="XMLID_235_" d="M95,330c3.978,0.001,7.793-1.58,10.605-4.393l59.396-59.393l79.999-80L143.787,85.001l-79.999,80
		l-12.521,12.521L4.393,224.395C1.58,227.207,0,231.023,0,235.001l0.001,80c0,8.283,6.714,15,15,14.999H95z"/>
	<path id="XMLID_236_" d="M42.574,143.787L143.787,42.574L105.606,4.394c-5.858-5.858-15.355-5.858-21.213,0l-80.001,80
		C1.581,87.207,0,91.023,0.001,95.001C0,98.98,1.581,102.794,4.394,105.607L42.574,143.787z"/>
	<path id="XMLID_237_" d="M273.043,158.17l52.563-52.562c2.814-2.813,4.395-6.629,4.395-10.606c0-3.979-1.58-7.794-4.395-10.607
		l-80-80c-5.857-5.858-15.355-5.858-21.213,0.001l-48.094,48.094l-11.298,11.3l101.212,101.213L273.043,158.17z"/>
</g>
</svg>